<svg width="32" height="32" viewBox="0 0 32 32" fill="none" xmlns="http://www.w3.org/2000/svg">
<path fill-rule="evenodd" clip-rule="evenodd" d="M0 0H32V32H0V0ZM17.3647 14.6667H14.4627V25.302C14.4627 25.6157 14.1961 26.902 12.8471 26.8393C11.498 26.7765 10.8863 25.2706 10.8863 25.2706L8.48627 26.7451C8.48627 26.7451 9.8196 29.4745 12.502 29.4745C15.1843 29.4745 17.3647 28.4706 17.3647 25.302V14.6667ZM28.5961 16.8942C27.5876 15.1401 25.9454 14.4117 24.2353 14.5098C22.5252 14.608 20.0314 15.2495 19.9686 18.6353C19.9059 22.0212 24.0314 23.2 24.0314 23.2C25.7511 23.9234 26.5595 24.3516 26.5098 25.3334C26.3238 26.5392 25.5216 26.8549 24.4863 26.8549C23.451 26.8549 22.4225 26.3902 21.4745 25.0353L19.0902 26.4157C20.3656 28.4335 21.8667 29.5059 24.4863 29.4902C27.1059 29.4745 29.6 28.1255 29.5216 25.3334C29.4431 22.5412 28.094 21.8057 25.3647 20.5334C23.5658 19.8276 23.0275 19.5138 22.9333 18.6353C22.8392 17.7569 23.451 17.0981 24.3294 17.0981C25.2079 17.0981 25.8431 17.5689 26.2902 18.4L28.5961 16.8942Z" fill="#F7D358"/>
</svg>
