<svg width="33" height="32" viewBox="0 0 33 32" fill="none" xmlns="http://www.w3.org/2000/svg">
<path fill-rule="evenodd" clip-rule="evenodd" d="M3 0C1.34315 0 0 1.34315 0 3V8.28875H6.98364C7.52282 7.2018 8.64391 6.45463 9.9395 6.45463C11.2351 6.45463 12.3562 7.2018 12.8954 8.28875H19.69C20.2292 7.2018 21.3503 6.45463 22.6458 6.45463C24.467 6.45463 25.9434 7.93099 25.9434 9.75219C25.9434 11.5734 24.467 13.0497 22.6458 13.0497C21.2681 13.0497 20.0877 12.2048 19.5945 11.0049H13.2532L21.5626 19.3142C21.8974 19.1997 22.2566 19.1375 22.6303 19.1375C24.4514 19.1375 25.9278 20.6139 25.9278 22.4351C25.9278 24.2563 24.4514 25.7327 22.6303 25.7327C20.8091 25.7327 19.3327 24.2563 19.3327 22.4351C19.3327 21.9888 19.4214 21.5631 19.5821 21.1749L11.2053 12.7981C10.8155 12.9602 10.388 13.0497 9.9395 13.0497C8.56175 13.0497 7.38135 12.2048 6.8882 11.0049H0V16V29C0 30.6569 1.34315 32 3 32H16.0624H29.1249C30.7817 32 32.1249 30.6569 32.1249 29V16V3C32.1249 1.34315 30.7817 0 29.1249 0H16.0624H3Z" fill="#FF4000"/>
</svg>
